<svg xmlns="http://www.w3.org/2000/svg" enable-background="new 0 0 64 64" viewBox="0 0 64 64"><path fill="#e3e2e1" d="M54.01,58.74C54.01,61.65,44.15,64,32,64c-12.15,0-22.01-2.35-22.01-5.26c0-2.6,7.9-4.74,18.26-5.18h7.5C46.12,54,54.01,56.14,54.01,58.74z"/><path fill="#e82327" d="M32,0C20.7,0,11.54,9.15,11.54,20.45C11.54,31.75,32,58.74,32,58.74s20.45-26.99,20.45-38.29C52.45,9.15,43.3,0,32,0z M32,33.99c-7.48,0-13.54-6.06-13.54-13.54S24.52,6.91,32,6.91c7.48,0,13.54,6.06,13.54,13.54S39.48,33.99,32,33.99z"/></svg>